<svg xmlns="http://www.w3.org/2000/svg" xmlns:xlink="http://www.w3.org/1999/xlink" width="1440" height="327" viewBox="0 0 1440 327">
  <defs>
    <clipPath id="clip-path">
      <rect id="Rectangle_40" data-name="Rectangle 40" width="1440" height="327" transform="translate(0 60)" fill="#fff" stroke="#707070" stroke-width="1"/>
    </clipPath>
    <linearGradient id="linear-gradient" y1="0.5" x2="1" y2="0.5" gradientUnits="objectBoundingBox">
      <stop offset="0" stop-color="#a77927"/>
      <stop offset="0.47" stop-color="#fad76b"/>
      <stop offset="0.62" stop-color="#ecc15e"/>
      <stop offset="0.863" stop-color="#d9a34d"/>
      <stop offset="1" stop-color="#d29847"/>
    </linearGradient>
    <linearGradient id="linear-gradient-40" x1="0" y1="0.5" x2="1" y2="0.5" xlink:href="#linear-gradient"/>
  </defs>
  <g id="Group_3821" data-name="Group 3821" transform="translate(0 -57)">
    <rect id="Rectangle_24" data-name="Rectangle 24" width="1440" height="324" transform="translate(0 60)" fill="#f8f4ec"/>
    <g id="Mask_Group_4" data-name="Mask Group 4" transform="translate(0 -3)" clip-path="url(#clip-path)">
      <g id="Group_3306" data-name="Group 3306" transform="translate(193.629 -242.23)" opacity="0.376">
        <g id="Group_3305" data-name="Group 3305">
          <g id="Group_3296" data-name="Group 3296">
            <path id="Path_559" data-name="Path 559" d="M-245.352,779.906c39.049-8.586,75.828-27.063,111.606-44.968,36.538-18.286,72.958-36.725,111.687-49.475a488.411,488.411,0,0,1,117.42-23.329,448.929,448.929,0,0,1,119.331,7.083A414.034,414.034,0,0,1,272.951,685.2c17.033,6.05,35.415,12.686,48.646,25.99a55.29,55.29,0,0,1,8.043,10.3c.287.474.514-.938.293-1.3-9.523-15.669-25.894-24.3-41.955-30.805a399.27,399.27,0,0,0-55.959-17.84,442.146,442.146,0,0,0-119.413-11.818,484.206,484.206,0,0,0-119.064,19.4c-38.824,11.381-75.433,28.343-111.7,46.549-36.609,18.377-73.243,37.29-112.356,49.216q-7.4,2.257-14.852,4.335c-.215.06-.174.734.016.692Z" fill="url(#linear-gradient)"/>
            <path id="Path_560" data-name="Path 560" d="M-189.045,767.108q51.412-22.447,102.683-45.249c16.729-7.4,33.391-15.035,50.435-21.617a345.879,345.879,0,0,1,52.453-15.52c32.867-7.017,66.632-10.532,100.138-11.8,31.3-1.186,62.833.159,93.708,5.947,30.561,5.73,60.482,15.972,87.434,32.258q5.014,3.031,9.876,6.327c.309.209.442-1.008.116-1.228-25.874-17.454-54.888-29.071-84.894-35.963-30.847-7.085-62.572-9.366-94.1-8.868A606.09,606.09,0,0,0,29.039,681.1a363.457,363.457,0,0,0-51.82,13.272c-17.194,5.874-33.85,13.3-50.49,20.672-34.372,15.237-68.8,30.352-103.092,45.784q-6.379,2.873-12.762,5.741c-.152.068-.1.618.08.538Z" fill="url(#linear-gradient)"/>
            <path id="Path_561" data-name="Path 561" d="M-200.843,779.658c29.928-13.921,59.727-28.021,90.271-40.433A874.059,874.059,0,0,1-17.1,706.862a613.065,613.065,0,0,1,97.233-19.247,477.27,477.27,0,0,1,99.608-1.048,403.421,403.421,0,0,1,48.683,7.78c15.361,3.446,30.666,7.945,44.719,15.428a113.048,113.048,0,0,1,10.024,6.033c.322.217.459-1.048.12-1.276-12.952-8.718-27.47-14.327-42.313-18.385A358.279,358.279,0,0,0,193,686.794a462.052,462.052,0,0,0-100-1.733A591.169,591.169,0,0,0-5.7,702.592a831.745,831.745,0,0,0-93.136,30.834c-30.816,12.124-61.073,25.74-90.966,40.156q-5.593,2.7-11.128,5.513c-.155.079-.1.649.083.563Z" fill="url(#linear-gradient)"/>
            <path id="Path_562" data-name="Path 562" d="M-204.707,796.974C-191.243,789.226-177.9,781.3-164.2,774q20.41-10.878,41.4-20.523a690.279,690.279,0,0,1,87.018-33.192,594.853,594.853,0,0,1,89.019-19.912,520.094,520.094,0,0,1,91.143-5.036c31.3,1.073,63.14,4.725,92.554,16.586q5.389,2.173,10.632,4.713c.391.189.486-1.133.123-1.307-28.433-13.708-59.742-18.855-90.777-20.719a508.949,508.949,0,0,0-92.129,3.006A587.066,587.066,0,0,0-25.31,716.055a679.079,679.079,0,0,0-86.466,31.34A767.732,767.732,0,0,0-195,790.321c-3.3,1.959-6.564,3.96-9.793,6.043-.158.1-.1.717.089.61Z" fill="url(#linear-gradient)"/>
            <path id="Path_563" data-name="Path 563" d="M-203.209,814.2A488.671,488.671,0,0,1-128.5,769.19a569.774,569.774,0,0,1,81.753-31.722,759.224,759.224,0,0,1,84.91-20.413c28.784-5.279,57.958-9.794,87.16-11.45,29.481-1.672,59.792.172,87.6,11.367q5.034,2.028,9.908,4.448c.383.189.479-1.115.122-1.292C196.28,706.955,166.589,703.2,137.362,703.8c-29.578.606-59.144,5.01-88.3,10a789.286,789.286,0,0,0-85.55,19.316,588.831,588.831,0,0,0-81.84,30,466.643,466.643,0,0,0-75.98,43.511q-4.575,3.244-9.035,6.652c-.233.179-.112,1.107.135.927Z" fill="url(#linear-gradient)"/>
            <path id="Path_564" data-name="Path 564" d="M-204.167,830.4c19.879-18.109,42.091-32.576,65.776-44.592A584.474,584.474,0,0,1-62.009,753.92,617.926,617.926,0,0,1,19.1,732.379,610.476,610.476,0,0,1,101.918,722.1c27.547-1.512,56.141-2.437,83.118,4.549q5.355,1.388,10.584,3.234c.424.149.478-1.158.121-1.283-26.536-9.331-55.063-9.342-82.737-8.334A612.366,612.366,0,0,0-52.213,749.38a607.654,607.654,0,0,0-77.464,30.861c-24.014,11.566-47.5,25.139-67.772,43.048-2.355,2.08-4.622,4.264-6.852,6.49-.132.131-.016.758.134.622Z" fill="url(#linear-gradient)"/>
            <path id="Path_565" data-name="Path 565" d="M-210.164,847.881c9.468-7.928,18.834-15.93,28.733-23.276s20.139-14.24,30.637-20.643a430.792,430.792,0,0,1,66.188-32.89,456.226,456.226,0,0,1,73.18-21.91,510.5,510.5,0,0,1,80.952-10.3,576.758,576.758,0,0,1,81.648,1.972q5.13.482,10.252,1.048c.4.044.43-1.416-.035-1.467a587.948,587.948,0,0,0-81.96-3.4,516.106,516.106,0,0,0-81.483,8.821,462.1,462.1,0,0,0-73.79,20.5,432.649,432.649,0,0,0-66.864,31.456,399.393,399.393,0,0,0-60.54,43.088c-2.4,2.072-4.721,4.221-7,6.433-.125.121-.064.7.085.57Z" fill="url(#linear-gradient)"/>
            <path id="Path_566" data-name="Path 566" d="M-205.612,853.111a427.316,427.316,0,0,1,57.195-40.134,414.788,414.788,0,0,1,62.594-29.56,435.15,435.15,0,0,1,67.217-19.124A454.8,454.8,0,0,1,119.15,758.17q4.328.468,8.645,1.021c.4.05.43-1.367-.034-1.426a454.068,454.068,0,0,0-138.635,3.653,438.545,438.545,0,0,0-66.684,17.64,413.713,413.713,0,0,0-63.428,28.4,376.9,376.9,0,0,0-57.938,39.247q-3.429,2.844-6.781,5.787c-.15.131-.066.748.093.618Z" fill="url(#linear-gradient)"/>
            <path id="Path_567" data-name="Path 567" d="M-198.774,857.523c17.128-12.03,34.346-23.808,52.356-34.362a493.4,493.4,0,0,1,55.575-28.188A396.52,396.52,0,0,1-30.95,774.688,340.44,340.44,0,0,1,32.8,764.945a291.461,291.461,0,0,1,64.14,3.44q3.922.66,7.826,1.436c.408.081.47-1.409-.036-1.508a287.625,287.625,0,0,0-64.311-5.15A333.635,333.635,0,0,0-23.5,771.49,387.958,387.958,0,0,0-83.7,790.661a477.406,477.406,0,0,0-55.966,27.358,589.53,589.53,0,0,0-52.959,34.1q-3.157,2.275-6.264,4.625c-.2.154-.107.944.119.784Z" fill="url(#linear-gradient)"/>
            <path id="Path_568" data-name="Path 568" d="M-175.984,851.532c8.068-4.209,15.934-8.857,23.934-13.206q12.143-6.6,24.452-12.857c16.253-8.232,32.779-15.9,49.644-22.657a434.217,434.217,0,0,1,52.5-17.461,335.953,335.953,0,0,1,54.044-9.557,270.6,270.6,0,0,1,54.852.456q3.372.384,6.732.86c.413.058.45-1.374-.033-1.443a264.179,264.179,0,0,0-54.823-1.839,326.609,326.609,0,0,0-54.68,8.579,415.278,415.278,0,0,0-52.046,16.44c-17.025,6.578-33.7,14.115-50.089,22.265-16.5,8.2-32.7,17.032-48.717,26.22-1.978,1.135-3.937,2.289-5.873,3.5-.186.116-.128.819.105.7Z" fill="url(#linear-gradient)"/>
            <path id="Path_569" data-name="Path 569" d="M-160.37,850.126c13.787-7.913,27.68-15.6,41.955-22.515q21.5-10.414,43.829-18.786a440.571,440.571,0,0,1,45.4-14.265,391.824,391.824,0,0,1,46.464-8.95c16.486-2.127,33.3-3.261,49.79-.573q3.092.5,6.149,1.192c.346.077.41-1.212-.031-1.31-16.471-3.661-33.441-3.141-50.093-1.266a381.13,381.13,0,0,0-46.79,8.327,431.946,431.946,0,0,0-45.292,13.679c-14.939,5.394-29.615,11.573-44.006,18.4s-28.53,14.28-42.348,22.32c-1.724,1-3.427,2.046-5.131,3.086-.183.112-.11.778.1.658Z" fill="url(#linear-gradient)"/>
            <path id="Path_570" data-name="Path 570" d="M-145.345,850.967c12.724-5.964,25.33-12.2,38.007-18.274,12.245-5.862,24.6-11.445,37.278-16.208a365.11,365.11,0,0,1,76.554-19.6q9.676-1.381,19.413-2.233c6.318-.551,12.918-1.411,19.227-.382a30.685,30.685,0,0,1,4.812,1.207c.4.135.433-.976.115-1.116-5.855-2.578-12.545-1.921-18.725-1.47q-9.834.718-19.623,1.973a361.545,361.545,0,0,0-76.78,18.554c-12.778,4.607-25.241,10.025-37.538,15.881q-19.117,9.1-38.105,18.522-2.377,1.174-4.752,2.36c-.22.11-.146.908.117.785Z" fill="url(#linear-gradient)"/>
            <path id="Path_571" data-name="Path 571" d="M-125.317,850.379c4.924-2.343,9.708-5.03,14.567-7.517q7.336-3.754,14.775-7.289c9.964-4.725,20.073-9.123,30.336-13.09,10.242-3.959,20.638-7.49,31.181-10.47a291.238,291.238,0,0,1,31.8-7.146,243.49,243.49,0,0,1,32.233-3.186c1.343-.04,2.684-.08,4.027-.144.416-.02.392-1.3-.031-1.311a156.529,156.529,0,0,0-16.356.744q-8.067.68-16.083,1.891a277.865,277.865,0,0,0-31.872,6.787c-10.525,2.875-20.91,6.306-31.139,10.176-10.294,3.894-20.433,8.232-30.424,12.909s-19.88,9.625-29.538,15c-1.2.67-2.388,1.353-3.559,2.079-.147.091-.109.654.084.563Z" fill="url(#linear-gradient)"/>
            <path id="Path_572" data-name="Path 572" d="M-110.81,851.993c7.791-3.96,15.5-8.095,23.335-11.964,7.867-3.883,15.818-7.58,23.894-10.965,8.116-3.4,16.354-6.5,24.722-9.151a222.759,222.759,0,0,1,25.041-6.434,182.223,182.223,0,0,1,25.6-3.159c1.068-.052,2.129-.11,3.194-.209.394-.037.369-1.208-.029-1.22a94.831,94.831,0,0,0-12.96.815q-6.437.69-12.819,1.844a216.9,216.9,0,0,0-25.215,6.2c-8.292,2.553-16.458,5.54-24.5,8.846-8.137,3.345-16.149,7.013-24.062,10.9q-5.94,2.914-11.808,5.988c-3.907,2.038-7.831,4.083-11.648,6.3q-1.413.822-2.826,1.647c-.153.089-.1.657.084.562Z" fill="url(#linear-gradient)"/>
            <path id="Path_573" data-name="Path 573" d="M-78.445,842.618c4-2.112,7.993-4.261,12.077-6.2q6.1-2.895,12.4-5.278a163.167,163.167,0,0,1,26.072-7.45q3.736-.738,7.5-1.3,1.855-.279,3.715-.514a35,35,0,0,0,3.835-.534c.328-.079.33-1.043-.025-1.055a21.561,21.561,0,0,0-3.388.293q-1.692.211-3.379.46-3.374.5-6.726,1.142-6.648,1.28-13.183,3.113a164.439,164.439,0,0,0-25.307,9.4,117.413,117.413,0,0,0-13.675,7.366c-.144.093-.1.651.083.554Z" fill="url(#linear-gradient)"/>
          </g>
          <g id="Group_3297" data-name="Group 3297">
            <path id="Path_574" data-name="Path 574" d="M222.511,671.806c21.811-16.42,44.551-31.359,68.636-43.874A382.418,382.418,0,0,1,367,597.957a314.759,314.759,0,0,1,80.3-11.275,292.541,292.541,0,0,1,84.851,11.9A275.308,275.308,0,0,1,572.6,614.029c10.664,5.085,21.579,11.405,28.739,21.4a39.526,39.526,0,0,1,4.436,8.051c.337.822.649-.789.471-1.22-4.654-11.3-14.051-19.144-24.112-24.974-11.924-6.909-24.951-12.053-37.873-16.5a290.871,290.871,0,0,0-84.378-15.563,308.252,308.252,0,0,0-82.4,8.473,371.041,371.041,0,0,0-76.431,27.712,451.072,451.072,0,0,0-70.414,43.049q-4.187,3.1-8.278,6.337c-.257.2-.119,1.216.149,1.014Z" fill="url(#linear-gradient)"/>
            <path id="Path_575" data-name="Path 575" d="M234.479,671.6a476.144,476.144,0,0,1,66.262-38.1,443.009,443.009,0,0,1,71.937-26.4,422.56,422.56,0,0,1,75.389-13.422c27-2.25,54.671-1.375,80.825,6.584,22.175,6.747,43.3,18.632,59.43,36.108q3,3.254,5.751,6.747c.337.427.516-.892.27-1.2-14.8-18.718-35.007-31.954-56.784-40-25-9.233-51.83-11.505-78.173-10.246a402.922,402.922,0,0,0-77.545,11.787,441,441,0,0,0-139.56,61.874q-4,2.688-7.919,5.488c-.206.147-.107.929.117.776Z" fill="url(#linear-gradient)"/>
            <path id="Path_576" data-name="Path 576" d="M245.138,674.964a491.143,491.143,0,0,1,62.547-34.641A459.021,459.021,0,0,1,375,615.657a433.746,433.746,0,0,1,70.863-13.763c24.91-2.648,50.462-2.528,74.843,4.032,21.066,5.669,41.335,16.178,56.973,32.19Q580.5,641,583.1,644.107c.317.378.468-.817.24-1.089-14.286-17.013-33.431-28.789-53.916-35.712-23.433-7.919-48.384-9.371-72.821-7.639a404.874,404.874,0,0,0-72.9,12.461,460.992,460.992,0,0,0-67.331,23.165,453.556,453.556,0,0,0-63.714,33.729q-3.855,2.46-7.652,5.015c-.246.166-.13,1.1.137.927Z" fill="url(#linear-gradient)"/>
            <path id="Path_577" data-name="Path 577" d="M258.29,677.663c18.829-12.8,39.353-22.136,60.207-30.672,21.561-8.825,43.354-17.1,65.629-23.749,22.054-6.58,44.612-11.552,67.483-13.626,20.826-1.888,42.112-1.6,62.63,2.913,18.712,4.119,37.05,11.975,51.5,25.344q2.8,2.594,5.374,5.442c.324.357.464-.786.234-1.039-13.208-14.484-30.617-23.639-48.947-28.794-19.974-5.616-40.919-6.712-61.495-5.545-23.1,1.309-45.955,5.751-68.283,11.977-22.248,6.2-44.012,14.162-65.5,22.767-21.188,8.484-42.485,17.269-61.918,29.653-2.378,1.515-4.7,3.122-6.991,4.774-.145.105-.076.663.083.555Z" fill="url(#linear-gradient)"/>
            <path id="Path_578" data-name="Path 578" d="M267.138,682.061a347.957,347.957,0,0,1,53.895-27.518,579.079,579.079,0,0,1,57.843-19.422c20.633-5.9,41.468-11.375,62.753-13.958a253.213,253.213,0,0,1,64.036.4c18.531,2.481,38.231,6.346,53.763,17.9a60.83,60.83,0,0,1,5.625,4.747c.356.339.478-.792.234-1.025-13.665-13.031-32.107-18.193-49.923-21.279a252.83,252.83,0,0,0-64.841-2.764c-21.787,1.88-43.1,6.947-64.182,12.828-19.5,5.441-38.9,11.372-57.87,18.617a333.041,333.041,0,0,0-55,26.511q-3.273,2-6.457,4.142c-.22.149-.128.981.124.824Z" fill="url(#linear-gradient)"/>
            <path id="Path_579" data-name="Path 579" d="M278.333,686c16.107-9.742,33.225-17.5,50.505-24.644a527.39,527.39,0,0,1,53.607-19.1,362.986,362.986,0,0,1,55.345-11.811,277.364,277.364,0,0,1,56.657-1.674,235.079,235.079,0,0,1,28.076,3.844c8.56,1.712,17.48,3.555,25.248,7.86a36.986,36.986,0,0,1,5.238,3.521c.253.2.4-.909.107-1.14-6.674-5.328-14.839-7.794-22.911-9.707A227.792,227.792,0,0,0,502,628.334a269.241,269.241,0,0,0-57.177.2A345.714,345.714,0,0,0,389.2,639.36,499.711,499.711,0,0,0,335.753,657.7c-17.522,7.064-34.969,14.661-51.435,24.147q-3.057,1.761-6.065,3.612c-.149.091-.082.637.08.539Z" fill="url(#linear-gradient)"/>
            <path id="Path_580" data-name="Path 580" d="M288.768,689.143a269.539,269.539,0,0,1,44.313-21.721,462.836,462.836,0,0,1,47.507-14.932c16.871-4.456,33.861-8.513,51.021-11.559a316.612,316.612,0,0,1,52.3-5.217c16.467-.155,33.669.718,49.134,7.181q2.8,1.17,5.494,2.592c.319.168.41-.948.1-1.108-14.738-7.7-31.485-9.383-47.73-9.657A299.337,299.337,0,0,0,438.3,638.89c-17.507,2.819-34.822,6.8-52.016,11.229-15.878,4.085-31.675,8.587-47.136,14.174a261.474,261.474,0,0,0-45.215,20.89q-2.662,1.587-5.268,3.271c-.183.118-.1.814.1.689Z" fill="url(#linear-gradient)"/>
            <path id="Path_581" data-name="Path 581" d="M296.037,692.48c13.711-6.7,27.678-12.839,41.89-18.286q21.385-8.2,43.4-14.435,21.916-6.211,44.292-10.414Q447.865,645.162,470.4,643c14.413-1.373,29.489-2.349,43.44,2.507a54.2,54.2,0,0,1,5.116,2.086c.331.155.406-.951.1-1.092-13.382-6.219-28.355-6.236-42.694-5.108-15.107,1.189-30.173,3.212-45.109,5.849q-22.494,3.974-44.6,10.011-21.907,5.973-43.262,13.924c-14.325,5.337-28.452,11.293-42.266,17.942q-2.616,1.26-5.217,2.549c-.227.112-.144.936.119.808Z" fill="url(#linear-gradient)"/>
            <path id="Path_582" data-name="Path 582" d="M301.308,695.881c5.989-2.617,11.888-5.454,17.889-8.044s12.065-5.065,18.163-7.418q18.435-7.114,37.364-12.7,18.681-5.516,37.715-9.585,19.111-4.074,38.483-6.609c12.7-1.66,26.029-3.684,38.7-.829a46.552,46.552,0,0,1,4.9,1.392c.345.118.386-.969.1-1.068-12.4-4.242-25.676-2.757-38.39-1.232q-19.557,2.344-38.9,6.272-19.236,3.9-38.147,9.367-18.742,5.433-37.062,12.328-18.528,6.966-36.5,15.449c-1.476.7-2.938,1.418-4.386,2.178-.131.069-.092.571.071.5Z" fill="url(#linear-gradient)"/>
            <path id="Path_583" data-name="Path 583" d="M307.642,699.362c4.284-1.7,8.511-3.56,12.785-5.292s8.578-3.413,12.895-5.038q13.05-4.911,26.322-9.141,13.164-4.2,26.513-7.73c8.915-2.358,17.886-4.536,26.909-6.4,9.11-1.881,18.475-3.244,27.761-2.113,1.132.138,2.258.317,3.379.53.279.053.326-1.02-.025-1.088-9.265-1.77-18.694-.723-27.884,1.031-9.069,1.732-18.071,3.941-27.013,6.277s-17.846,4.9-26.677,7.691q-13.146,4.152-26.092,8.956c-8.693,3.222-17.323,6.645-25.843,10.34-1.044.454-2.082.917-3.113,1.4-.154.073-.111.647.083.57Z" fill="url(#linear-gradient)"/>
            <path id="Path_584" data-name="Path 584" d="M314.618,703.568c5.568-2.2,11.061-4.609,16.645-6.776s11.218-4.221,16.886-6.152c11.323-3.857,22.769-7.286,34.35-10.19,3.158-.791,6.331-1.662,9.543-2.177,3.048-.489,6.311-.582,9.146.865.352.18.462-1.016.116-1.172-5.232-2.353-11-.553-16.261.755q-8.766,2.18-17.443,4.728-17.328,5.076-34.207,11.641c-6.336,2.466-12.72,4.964-18.853,7.947-.144.07-.105.6.078.531Z" fill="url(#linear-gradient)"/>
            <path id="Path_585" data-name="Path 585" d="M319.143,707.992c4.691-1.58,9.419-3.059,14.148-4.511,4.581-1.407,9.187-2.917,13.866-3.927a29.664,29.664,0,0,1,8.027-.614c.29.016.283-.9-.023-.948a21.639,21.639,0,0,0-7.193.438c-2.357.466-4.664,1.157-6.966,1.85q-7,2.107-13.929,4.426c-2.681.9-5.336,1.873-8,2.826-.129.046-.1.515.068.46Z" fill="url(#linear-gradient)"/>
          </g>
          <g id="Group_3298" data-name="Group 3298">
            <path id="Path_586" data-name="Path 586" d="M-93.916,714.712C-67.191,684.724-40.2,654.86-10.191,628.4c28.98-25.56,60.664-47.367,95.359-63.48a370.615,370.615,0,0,1,106.65-31.151,353.256,353.256,0,0,1,109.543,2.066c33.281,6.015,67.389,18.207,92.016,43.363a115.425,115.425,0,0,1,8.241,9.423c.365.464.555-1,.289-1.339-21.659-27.491-53.93-42.268-86.484-50-35.515-8.438-72.778-10.046-108.985-6.65a370.914,370.914,0,0,0-107.5,26.757C63.507,572.1,30.715,592.534.907,617.345c-30.77,25.613-58.439,55.088-85.132,85.209q-5,5.64-9.961,11.31c-.207.237-.031,1.185.27.848Z" fill="url(#linear-gradient)"/>
            <path id="Path_587" data-name="Path 587" d="M-80.168,707.447c27.139-24.965,54.261-50.015,83.04-72.919,28.354-22.565,58.379-43.073,90.758-58.772A368.237,368.237,0,0,1,200.1,542.862c32.4-4.8,65.605-5.534,97.878.676,30.311,5.833,60.009,18.126,83.633,39.215q4.625,4.128,8.89,8.663c.41.434.574-.971.286-1.274-21.776-23.028-50.124-37.49-80-45.1-31.415-8-64.14-8.81-96.194-5.353a368.432,368.432,0,0,0-108.148,28.87C73,583.218,41.92,603.112,12.743,625.536c-28.986,22.277-56.221,46.932-83.107,71.888q-5.016,4.656-10.025,9.324c-.188.175-.058.955.221.7Z" fill="url(#linear-gradient)"/>
            <path id="Path_588" data-name="Path 588" d="M-50.342,696.324c11.952-10.787,23.708-21.767,36.024-32.111s24.984-20.27,38-29.645a502.673,502.673,0,0,1,82.253-48.617,389.522,389.522,0,0,1,94.679-30.332c30.832-5.523,62.98-7.355,94.043-2.792,26.246,3.854,53.458,13.231,72.15,33.806a85.216,85.216,0,0,1,6.4,7.992c.355.5.579-1,.314-1.375-16.153-22.754-41.923-34.459-67.835-39.891-30.327-6.357-62.3-5.46-92.813-1.12a377.8,377.8,0,0,0-94.938,26.994A483.1,483.1,0,0,0,33.1,626.641a669.126,669.126,0,0,0-75.233,61.1c-2.824,2.633-5.6,5.3-8.331,8.046-.116.117-.017.665.122.539Z" fill="url(#linear-gradient)"/>
            <path id="Path_589" data-name="Path 589" d="M-18.82,683.549c21.875-17,44.041-33.533,67.272-48.469a545.781,545.781,0,0,1,72.1-39.432,404.777,404.777,0,0,1,79.085-26.4c26.775-5.823,54.753-9.091,82.1-6.941,25.588,2.01,51.766,10.273,70.48,29.46a81.853,81.853,0,0,1,5.939,6.824c.382.489.592-1,.312-1.354-15.909-20.346-40.057-31.1-64.44-34.951-13.914-2.2-28.056-2.359-42.086-1.607a323.672,323.672,0,0,0-41.413,4.983,390.447,390.447,0,0,0-79.22,23.943,519.38,519.38,0,0,0-73.889,38.527A786.125,786.125,0,0,0-10.7,676.071q-4.162,3.243-8.261,6.575c-.238.193-.111,1.1.142.9Z" fill="url(#linear-gradient)"/>
            <path id="Path_590" data-name="Path 590" d="M7.043,676.5c20.978-14.059,41.94-28.065,63.769-40.661a543.063,543.063,0,0,1,67.536-33.333,379.223,379.223,0,0,1,72.7-21.622c23.526-4.379,47.948-6.629,71.817-4.5,19.894,1.774,40.856,7.3,55.762,22.011a62.346,62.346,0,0,1,5.083,5.69c.368.465.566-.944.3-1.282-12.923-16.323-32.73-23.784-52.26-26.727a188.7,188.7,0,0,0-32.726-1.671,296.893,296.893,0,0,0-37.784,3.393,365.327,365.327,0,0,0-73.062,19.517A506.271,506.271,0,0,0,79.4,629.741c-22.17,12.406-43.681,26.108-64.673,40.575q-3.917,2.7-7.792,5.463c-.191.137-.1.864.11.721Z" fill="url(#linear-gradient)"/>
            <path id="Path_591" data-name="Path 591" d="M30.813,670.4c9.516-4.977,18.812-10.441,28.226-15.627s18.9-10.3,28.447-15.243c19.069-9.873,38.435-19.157,58.315-27.112a391.619,391.619,0,0,1,60.607-19.067,274.81,274.81,0,0,1,62.255-6.887c19.259.2,40.223,3.643,54.284,18.727a46.454,46.454,0,0,1,4.185,5.207c.351.506.587-.967.323-1.347-11.34-16.294-30.91-22.3-49.309-23.6-21.085-1.5-42.6.775-63.326,4.792a369.659,369.659,0,0,0-60.6,17.557,591.013,591.013,0,0,0-59.034,26.536c-19.421,9.915-38.5,20.546-57.525,31.267-2.337,1.316-4.661,2.647-6.961,4.032-.207.125-.137.9.115.769Z" fill="url(#linear-gradient)"/>
            <path id="Path_592" data-name="Path 592" d="M58.288,665.706a401.847,401.847,0,0,1,49.063-24.481c16.853-7.1,34.012-13.415,51.2-19.554,17.824-6.364,35.811-12.342,54.2-16.668,17.951-4.222,36.317-6.841,54.746-6.474a125.8,125.8,0,0,1,25.239,2.642c7.272,1.645,14.557,4.44,20.325,9.491a32.567,32.567,0,0,1,4.025,4.247c.383.482.59-.981.31-1.333-10.013-12.547-26.915-15.146-41.6-16.149-18.62-1.272-37.326.743-55.587,4.555-18.366,3.833-36.338,9.479-54.087,15.676-17.534,6.122-35.008,12.544-52.219,19.6-17.044,6.992-33.912,14.714-49.87,24.138q-2.952,1.741-5.858,3.561c-.2.127-.117.88.111.745Z" fill="url(#linear-gradient)"/>
            <path id="Path_593" data-name="Path 593" d="M82.873,661.508c7.4-2.443,14.619-5.592,21.895-8.411q10.974-4.252,22-8.362c14.8-5.491,29.7-10.7,44.771-15.333,14.813-4.552,29.786-8.56,44.935-11.693a347.37,347.37,0,0,1,45.971-6.486c13.554-.953,28.526-1.9,41.01,4.756a35.966,35.966,0,0,1,4.219,2.654c.358.26.532-1.194.141-1.475-11.356-8.177-25.8-8.44-39.064-7.775a333.69,333.69,0,0,0-46.508,5.776A465.168,465.168,0,0,0,176.8,626.477c-14.944,4.483-29.719,9.564-44.384,14.957-14.787,5.438-29.469,11.184-44.12,17.008-1.865.741-3.708,1.5-5.534,2.338-.2.093-.155.816.109.728Z" fill="url(#linear-gradient)"/>
            <path id="Path_594" data-name="Path 594" d="M103.584,660.721a72.862,72.862,0,0,0,8.79-2.638q4.539-1.5,9.083-2.986c6.214-2.029,12.429-4.054,18.661-6.023,12.217-3.86,24.481-7.564,36.838-10.9,12.262-3.312,24.614-6.274,37.066-8.7a372.967,372.967,0,0,1,37.748-5.45c12.741-1.146,25.721-1.83,38.4.358q2.364.408,4.7.955c.395.092.476-1.43-.036-1.549-12.59-2.915-25.575-2.638-38.361-1.664a360.454,360.454,0,0,0-37.817,5c-12.593,2.316-25.084,5.213-37.477,8.5-12.375,3.28-24.66,6.932-36.877,10.807q-18.2,5.773-36.271,11.982a40.855,40.855,0,0,0-4.49,1.786c-.125.06-.11.555.045.525Z" fill="url(#linear-gradient)"/>
            <path id="Path_595" data-name="Path 595" d="M129.606,660.251c2.4-.508,4.72-1.35,7.064-2.081,2.406-.751,4.812-1.5,7.224-2.228q7.1-2.141,14.242-4.1,14.43-3.963,29.023-7.238,14.52-3.264,29.176-5.816c9.835-1.713,19.714-3.251,29.626-4.388a163.465,163.465,0,0,1,30.237-1.06c1.278.091,2.542.184,3.823.211.368.008.337-1.126-.028-1.2a51.494,51.494,0,0,0-7.513-.666q-3.834-.15-7.672-.073c-5.076.093-10.146.448-15.2.96-9.953,1.009-19.866,2.535-29.733,4.218q-14.734,2.514-29.347,5.749t-29.058,7.21c-9.508,2.622-18.972,5.442-28.348,8.542a35.919,35.919,0,0,0-3.569,1.358c-.146.066-.122.635.051.6Z" fill="url(#linear-gradient)"/>
            <path id="Path_596" data-name="Path 596" d="M155.091,660.964c7.026-1.623,13.96-3.705,20.93-5.569,6.989-1.869,14-3.662,21.039-5.3a332.667,332.667,0,0,1,42.347-7.339c3.9-.389,7.817-.751,11.735-.782a47.811,47.811,0,0,1,5.9.288,52.783,52.783,0,0,1,5.769,1.107c.369.085.394-1.178.051-1.3a30.767,30.767,0,0,0-10.329-1.5,102.825,102.825,0,0,0-10.481.57c-7.131.658-14.234,1.636-21.3,2.852-14.237,2.453-28.3,5.879-42.268,9.643-7.839,2.113-15.728,4.174-23.444,6.742-.158.052-.114.636.051.6Z" fill="url(#linear-gradient)"/>
            <path id="Path_597" data-name="Path 597" d="M180,662.177c4.461-.845,8.934-1.652,13.4-2.5q6.77-1.287,13.56-2.443,13.464-2.292,26.992-4.131c2.5-.334,5-.7,7.5-.971,1.54-.164,3.836-.22,4.594,1.523.112.256.311.189.425-.011a1.137,1.137,0,0,0-.022-.909A3.624,3.624,0,0,0,243,650.789a35.594,35.594,0,0,0-6.129.646q-6.954.918-13.888,1.993-13.815,2.121-27.537,4.818c-2.563.5-5.124,1.017-7.678,1.564-2.608.558-5.188,1.2-7.781,1.823-.176.042-.147.574.013.544Z" fill="url(#linear-gradient)"/>
            <path id="Path_598" data-name="Path 598" d="M198.534,665.28c4.838-.734,9.664-1.578,14.51-2.272s9.722-1.283,14.6-1.743c1.943-.183,4.2-.563,5.565,1.225.265.346.351-.529.3-.674-.587-1.706-2.49-1.937-4.005-1.869-2.432.108-4.879.477-7.3.766q-7.616.912-15.178,2.228c-2.864.5-5.689,1.091-8.512,1.787-.179.044-.161.578.012.552Z" fill="url(#linear-gradient-40)"/>
          </g>
          <g id="Group_3299" data-name="Group 3299">
            <path id="Path_599" data-name="Path 599" d="M-219.944,652.212c22.567-20.51,44.593-41.591,67.963-61.124,23.2-19.389,47.386-37.567,73.009-53.3,26.4-16.214,54.365-30.074,83.822-39.014,29.016-8.805,59.551-12.623,89.64-8.742a166.133,166.133,0,0,1,44.038,11.822c12.958,5.536,25.789,12.775,35.629,23.366a63.992,63.992,0,0,1,6.708,8.568c.52.8.85-.764.551-1.221-7.706-11.78-18.927-20.282-30.954-26.723a158.131,158.131,0,0,0-41.9-15.1C78.5,484.371,47.326,486.173,17.6,493.6c-29.935,7.482-58.452,20.37-85.338,35.89-26.441,15.264-51.365,33.266-75.177,52.657-23.759,19.347-46.543,40.03-68.734,61.308-2.829,2.712-5.64,5.438-8.417,8.207-.118.118-.015.672.122.547Z" fill="url(#linear-gradient)"/>
            <path id="Path_600" data-name="Path 600" d="M-217.6,659.978c21.042-22.71,45.021-42.01,69.111-61,23.417-18.464,47.274-36.4,72.51-52.074,25.175-15.632,51.8-29.021,79.921-37.736,27.719-8.59,56.9-12.841,85.8-10.518a175.385,175.385,0,0,1,43.04,8.83c12.6,4.338,24.97,10.411,35,19.641a69.419,69.419,0,0,1,6.857,7.314c.4.489.613-.955.322-1.311-8.594-10.529-20.015-17.921-32.16-23.168a161.988,161.988,0,0,0-40.655-11.2c-29.13-4.28-58.943-1.436-87.365,6.117-28.494,7.572-55.573,20.027-81.147,35.075-25.79,15.174-50.08,32.956-73.772,51.45-24.034,18.76-48.243,37.718-69.741,59.661-2.687,2.742-5.3,5.563-7.867,8.423-.118.131-.026.692.15.5Z" fill="url(#linear-gradient)"/>
            <path id="Path_601" data-name="Path 601" d="M-214.4,667.7c21.391-20.34,43.323-39.986,66.249-58.419,22.349-17.969,45.41-35.126,69.567-50.347C-54.684,543.882-29.525,530.783-3,521.62c27.112-9.364,55.72-14.642,84.324-13.765,26.234.8,54.422,6.13,76.222,22.335a82.649,82.649,0,0,1,7.767,6.56c.479.457.654-1.023.322-1.34-19.5-18.6-46.458-25.819-72.149-28.194-28.641-2.649-57.606,1.246-85.179,9.49-26.99,8.07-52.672,20.377-77.007,34.916-24.677,14.742-48.094,31.746-70.8,49.594q-35.148,27.632-67.652,58.7c-2.486,2.376-4.935,4.795-7.376,7.222-.126.125-.008.7.125.57Z" fill="url(#linear-gradient)"/>
            <path id="Path_602" data-name="Path 602" d="M-216.209,683.034c21.337-19.735,42.516-39.616,64.779-58.222,22.113-18.482,45.125-35.864,69.449-51.04A399.99,399.99,0,0,1-7.615,536.934c25.54-9.315,52.4-15.743,79.46-17.25,25.347-1.411,51.857,1.853,74.3,15.019,2.734,1.6,5.384,3.354,7.958,5.226.371.269.539-1.174.146-1.459-21.07-15.3-46.987-20.621-72.274-20.538-26.9.087-53.855,5.687-79.45,14.1a380.973,380.973,0,0,0-75.038,34.625c-24.633,14.6-47.919,31.584-70.228,49.793-22.683,18.514-44.356,38.328-65.7,58.49q-3.955,3.735-7.853,7.535c-.131.127-.046.682.084.562Z" fill="url(#linear-gradient)"/>
            <path id="Path_603" data-name="Path 603" d="M-213.109,694.152c19.929-18.247,39.537-36.855,59.959-54.508,20.384-17.618,41.457-34.428,63.7-49.413a394.138,394.138,0,0,1,69.172-37.7c24.137-9.993,49.437-17.139,75.273-20.1a225.188,225.188,0,0,1,38.654-1.157c12.613.732,25.382,2.693,37.083,7.881a69.435,69.435,0,0,1,8.383,4.433c.38.235.512-1.107.136-1.339-10.742-6.634-22.961-9.894-35.268-11.408a200.871,200.871,0,0,0-38.766-.681c-25.958,1.855-51.52,8.089-75.958,17.326a375.173,375.173,0,0,0-70.18,35.877c-22.635,14.573-44.043,31.131-64.668,48.641s-40.483,35.985-60.241,54.553c-2.484,2.335-4.938,4.7-7.4,7.069-.12.115-.013.645.119.524Z" fill="url(#linear-gradient)"/>
            <path id="Path_604" data-name="Path 604" d="M-211.7,708.179c16.5-20.19,35.986-37.393,55.782-53.911,19.606-16.359,39.438-32.484,60.115-47.345,20.5-14.732,41.9-28.207,64.539-39.05C-8.526,556.979,15.5,548.9,40.261,544.947c24.324-3.882,49.362-3.725,73.422,1.944q4.763,1.122,9.456,2.532c.487.145.532-1.238.137-1.356-23.865-7.132-48.93-8.65-73.546-5.789C25.018,545.15.808,552.261-22.087,562.322c-23.233,10.209-45.195,23.349-66.153,37.93s-40.976,30.634-60.7,47c-19.836,16.46-39.688,33.238-56.7,52.949q-3.177,3.683-6.217,7.49c-.109.137-.009.683.15.488Z" fill="url(#linear-gradient)"/>
            <path id="Path_605" data-name="Path 605" d="M-208.977,721.313c16.5-17.129,33.065-34.122,50.542-50.169a679.1,679.1,0,0,1,53.957-44.88,508.994,508.994,0,0,1,58.336-37.711c20.78-11.423,42.531-21.623,65.069-28.613,22.989-7.131,47.935-10.783,71.451-4.184,2.82.791,5.6,1.733,8.331,2.8.447.174.519-1.165.133-1.316-22.915-8.98-47.967-7.222-71.318-1.073-22.8,6-44.752,15.834-65.729,26.814a490.067,490.067,0,0,0-59.378,36.949,647.762,647.762,0,0,0-55.064,44.758q-26.181,23.653-50.462,49.529-3.047,3.238-6.041,6.529c-.135.147-.035.78.173.565Z" fill="url(#linear-gradient)"/>
            <path id="Path_606" data-name="Path 606" d="M-206.021,736.748c13.752-18.349,30.479-33.653,47.566-48.49,16.511-14.336,33.332-28.3,50.686-41.505a607.518,607.518,0,0,1,53.525-36.686A418.69,418.69,0,0,1,3.179,580.843a296.9,296.9,0,0,1,31.354-11.1c10.94-3.112,22.435-5.211,33.779-3.682a50.7,50.7,0,0,1,8.562,1.926c.488.154.54-1.245.139-1.372-11-3.471-22.585-2.834-33.725-.447-10.765,2.307-21.281,6.024-31.59,9.957a403.045,403.045,0,0,0-58.442,28.156,573.217,573.217,0,0,0-54.8,36.456c-17.566,13.1-34.559,27.009-51.2,41.357-17.035,14.686-34.247,29.567-48.411,47.386-1.745,2.2-3.41,4.456-5.025,6.757-.1.145,0,.719.156.508Z" fill="url(#linear-gradient)"/>
            <path id="Path_607" data-name="Path 607" d="M-203.273,749.534a130.811,130.811,0,0,1,18.118-22.03c6.941-6.981,14.168-13.669,21.45-20.257q21.633-19.57,44.687-37.331,22.942-17.676,47.15-33.456a567,567,0,0,1,49.773-29.481C-5.052,598.211,13.127,591,32.214,589.465q3.467-.279,6.944-.3c.414,0,.393-1.322-.031-1.318-19.063.169-37.464,6.329-54.653,14.566-17.456,8.366-34.172,18.581-50.546,29.036Q-90.59,647.1-113.881,664.737-137.24,682.422-159.214,702q-10.782,9.6-21.2,19.644c-6.945,6.7-13.778,13.659-19.416,21.624q-1.951,2.758-3.676,5.674c-.105.177.069.855.237.59Z" fill="url(#linear-gradient)"/>
            <path id="Path_608" data-name="Path 608" d="M-198.817,755.1c11.959-11.15,23.78-22.463,35.806-33.534,12.075-11.115,24.308-22.046,36.853-32.577,12.419-10.425,25.14-20.464,38.275-29.883A446.292,446.292,0,0,1-47.2,632.993q10.445-5.893,21.228-11.1c7.471-3.594,15.389-7.618,23.777-7.751a22.633,22.633,0,0,1,6.213.752c.512.137.529-1.237.053-1.362-8.188-2.155-16.516.8-24,4.165-7.407,3.333-14.674,7.033-21.828,10.921A428.078,428.078,0,0,0-82.932,654.29c-13.33,9.343-26.229,19.348-38.8,29.774-12.6,10.447-24.874,21.312-36.959,32.4s-24.049,22.346-35.838,33.782c-1.488,1.443-2.956,2.909-4.438,4.358-.126.123-.041.674.151.495Z" fill="url(#linear-gradient)"/>
            <path id="Path_609" data-name="Path 609" d="M-190.684,759.225c5.062-4.19,9.835-8.774,14.707-13.2q7.532-6.848,15.105-13.644c9.95-8.914,19.973-17.741,30.152-26.366,10.21-8.652,20.582-17.1,31.18-25.227,10.486-8.041,21.173-15.864,32.209-23.062,10.419-6.8,21.987-13.154,34.546-13.445a37.916,37.916,0,0,1,4.522.172c.4.038.41-1.237-.029-1.278-12.471-1.163-24.347,4.217-34.883,10.661-5.538,3.387-10.889,7.115-16.207,10.863q-8.238,5.807-16.285,11.9c-10.655,8.056-21.075,16.448-31.322,25.062q-15.456,12.992-30.461,26.553-14.96,13.449-29.716,27.147c-1.229,1.14-2.418,2.32-3.6,3.514-.073.074-.02.436.082.352Z" fill="url(#linear-gradient)"/>
            <path id="Path_610" data-name="Path 610" d="M-171.1,752.3c3.74-3.323,7.131-7.09,10.688-10.625q5.412-5.38,10.962-10.608,11.194-10.547,22.924-20.448,11.628-9.817,23.722-19,12.146-9.205,24.753-17.72a129.028,129.028,0,0,1,12.637-7.961c4.237-2.193,9.005-3.906,13.794-3.223a14.024,14.024,0,0,1,3.387.946c.459.191.544-1.128.142-1.292-9.3-3.773-18.846,2.785-26.4,7.82q-12.758,8.505-25.064,17.722-12.255,9.18-24.025,19.038-11.8,9.885-23.062,20.451c-7.489,7.012-14.833,14.213-21.915,21.676-.91.959-1.76,1.966-2.6,2.995-.04.049-.014.293.054.233Z" fill="url(#linear-gradient)"/>
            <path id="Path_611" data-name="Path 611" d="M-146.1,740.2c1.239-1.275,2.552-2.475,3.806-3.736s2.534-2.537,3.808-3.8q3.736-3.695,7.528-7.327,7.728-7.422,15.678-14.584,7.892-7.1,16-13.93c4.984-4.2,10.009-8.411,15.584-11.734,6.011-3.581,12.749-6.026,19.747-5.288.412.044.428-1.246-.03-1.294-12.835-1.327-24,7.521-33.427,15.459q-16.283,13.705-31.695,28.5-4.332,4.156-8.578,8.408-2.169,2.168-4.319,4.356c-1.444,1.47-2.816,3.013-4.251,4.49-.123.126-.028.663.15.48Z" fill="url(#linear-gradient)"/>
            <path id="Path_612" data-name="Path 612" d="M-124.734,728.544c.375-.283.784-.5,1.153-.785.387-.3.755-.639,1.127-.959.817-.705,1.623-1.424,2.436-2.134q2.351-2.052,4.7-4.106,4.616-4.024,9.279-7.988,4.758-4.044,9.564-8.026c3.081-2.552,6.133-5.172,9.308-7.593,3.008-2.294,7.057-4.774,10.809-2.924.426.21.529-1.055.14-1.244-3.21-1.565-6.671-.079-9.45,1.775-1.587,1.058-3.05,2.3-4.528,3.517q-2.466,2.023-4.918,4.064-9.717,8.082-19.234,16.419-2.64,2.313-5.26,4.652-1.356,1.218-2.708,2.442c-.392.356-.778.719-1.164,1.081-.483.453-.878.976-1.335,1.457-.068.071-.03.436.081.352Z" fill="url(#linear-gradient)"/>
          </g>
          <g id="Group_3300" data-name="Group 3300">
            <path id="Path_613" data-name="Path 613" d="M254.064,529.46a221.96,221.96,0,0,1,22.241-6.582,177.858,177.858,0,0,1,22.831-3.616,205.951,205.951,0,0,1,46.591,1.146A250.956,250.956,0,0,1,391.648,531.2c14.787,4.939,29.374,10.9,42.4,19.844a129.625,129.625,0,0,1,31.288,30.442q1.6,2.193,3.123,4.444c.349.513.567-1.012.318-1.39a128.985,128.985,0,0,0-29.94-31.709c-12.662-9.537-26.855-15.982-41.569-21.212a256.161,256.161,0,0,0-45.455-11.72,211.5,211.5,0,0,0-46.989-2.365,173.394,173.394,0,0,0-45.708,9.1c-1.731.6-3.43,1.291-5.12,2.011-.2.085-.113.885.064.825Z" fill="url(#linear-gradient)"/>
            <path id="Path_614" data-name="Path 614" d="M267.92,530.117c6.944-1.831,13.908-3.5,20.992-4.632a171.62,171.62,0,0,1,21.566-2.048,196.549,196.549,0,0,1,43.454,3.889,284.681,284.681,0,0,1,41.626,10.77,145.9,145.9,0,0,1,35.436,17.865,105.024,105.024,0,0,1,26.464,26.384q1.311,1.919,2.524,3.905c.178.29.358-.122.409-.265a1.255,1.255,0,0,0-.132-.967,102.056,102.056,0,0,0-25.574-27.732,139.441,139.441,0,0,0-34.652-18.775,256.57,256.57,0,0,0-40.3-11.184c-14.471-2.948-29.038-5.072-43.811-4.944a174.781,174.781,0,0,0-42.731,5.7c-1.774.466-3.531.989-5.28,1.55-.137.044-.1.515.012.486Z" fill="url(#linear-gradient)"/>
            <path id="Path_615" data-name="Path 615" d="M282.4,532.43c6.148-.5,12.272-1.279,18.424-1.749s12.311-.777,18.477-.833a171.023,171.023,0,0,1,36.564,3.306,222.375,222.375,0,0,1,34.646,10.529,145.649,145.649,0,0,1,30.821,15.829,90.824,90.824,0,0,1,22.893,22.43q1.167,1.677,2.244,3.418c.174.28.368-.11.412-.264a1.264,1.264,0,0,0-.132-.961,87.862,87.862,0,0,0-21.922-23.461,134.077,134.077,0,0,0-30.1-16.557,231.1,231.1,0,0,0-33.961-10.973,164.768,164.768,0,0,0-36.668-4.286,302.906,302.906,0,0,0-37.076,2.36c-1.549.179-3.092.371-4.633.611-.169.026-.146.614.014.6Z" fill="url(#linear-gradient)"/>
            <path id="Path_616" data-name="Path 616" d="M306.828,537.059c4.609-.1,9.2-.434,13.815-.407q6.972.041,13.924.675a169.2,169.2,0,0,1,27.373,4.8,167.176,167.176,0,0,1,26.339,9.3,153.86,153.86,0,0,1,23.97,13.334,92.627,92.627,0,0,1,19.934,18.029q1.038,1.289,2.02,2.626c.2.269.389-.09.438-.276a1.286,1.286,0,0,0-.14-1.006A88.04,88.04,0,0,0,415.32,565.5,145.956,145.956,0,0,0,391.6,551.681a167.37,167.37,0,0,0-26.068-9.711,162.756,162.756,0,0,0-27.379-5.241,164.918,164.918,0,0,0-27.949-.516c-1.137.077-2.262.2-3.389.368-.133.02-.12.481.011.478Z" fill="url(#linear-gradient)"/>
            <path id="Path_617" data-name="Path 617" d="M337.006,543.736c3.083.662,6.145,1.456,9.217,2.174s6.149,1.471,9.209,2.27c6.083,1.59,12.13,3.332,18.078,5.414,11.721,4.1,23.135,9.459,33.229,16.993a72.214,72.214,0,0,1,8.437,7.238,47.932,47.932,0,0,1,3.7,4.23c1.2,1.547,2.24,3.2,3.354,4.812.143.208.294-.031.347-.167a1.106,1.106,0,0,0-.04-.806,36.715,36.715,0,0,0-6.111-8.295,65.624,65.624,0,0,0-7.469-6.705,105.225,105.225,0,0,0-15.876-10.163c-11.207-5.872-23.214-9.858-35.353-13.006-3.438-.892-6.9-1.7-10.359-2.466s-6.919-1.379-10.375-2.091c-.132-.028-.161.531.013.568Z" fill="url(#linear-gradient)"/>
            <path id="Path_618" data-name="Path 618" d="M368.114,558.162a9.153,9.153,0,0,0,2.329.9q1.266.392,2.521.825,2.412.837,4.77,1.831a83.524,83.524,0,0,1,9.178,4.548,82.562,82.562,0,0,1,16.354,12.362q2.082,2.025,4.022,4.2c1.276,1.431,2.416,3.02,3.75,4.39.4.408.409-.8.255-1.047a32.594,32.594,0,0,0-3.3-4.092q-1.762-1.975-3.636-3.835a80.928,80.928,0,0,0-7.683-6.705,78.947,78.947,0,0,0-17.723-10.3q-2.679-1.112-5.429-2.017-1.278-.421-2.567-.8a7.616,7.616,0,0,0-2.833-.538c-.086.009-.065.24-.009.276Z" fill="url(#linear-gradient)"/>
          </g>
          <g id="Group_3301" data-name="Group 3301">
            <path id="Path_619" data-name="Path 619" d="M100.3,491.046a226.53,226.53,0,0,1,24.355-11.307,202.18,202.18,0,0,1,25.974-8.009,221.347,221.347,0,0,1,53.363-5.851,257.617,257.617,0,0,1,55.066,6.75,317.6,317.6,0,0,1,53.584,17.648c15.674,6.7,31.546,14.4,44.021,26.659q2.439,2.4,4.657,5.017c.392.461.573-1.03.291-1.36-11.472-13.409-26.885-21.963-42.484-28.994a324.952,324.952,0,0,0-52.78-18.673,264.2,264.2,0,0,0-55.807-8.286,224.142,224.142,0,0,0-53.8,4.423,197,197,0,0,0-50.577,17.78c-2.024,1.049-4.018,2.145-5.985,3.307-.223.132-.138,1.033.122.9Z" fill="url(#linear-gradient)"/>
            <path id="Path_620" data-name="Path 620" d="M112.518,492.5c7.791-3.085,15.612-6.008,23.631-8.384a230.6,230.6,0,0,1,23.723-5.68,253.276,253.276,0,0,1,48.782-4.088,276.752,276.752,0,0,1,48.956,4.992,290.873,290.873,0,0,1,47.855,13.54c14.746,5.567,29.516,12.268,41.555,23q2.343,2.088,4.512,4.373c.4.423.562-.965.279-1.26-11.281-11.749-25.724-19.244-40.43-25.163a290.755,290.755,0,0,0-47.154-14.459,276.592,276.592,0,0,0-49.276-6.149,252.791,252.791,0,0,0-49.512,3.169A232.386,232.386,0,0,0,118.1,489.365c-1.914.755-3.808,1.545-5.687,2.39-.189.086-.134.838.1.745Z" fill="url(#linear-gradient)"/>
            <path id="Path_621" data-name="Path 621" d="M124.259,495.812a369.868,369.868,0,0,1,44.551-8.95,323.838,323.838,0,0,1,45.116-2.667,307.978,307.978,0,0,1,43.688,3.491,225.043,225.043,0,0,1,40.328,9.9A168,168,0,0,1,334.9,515.7q2.208,1.46,4.367,2.995c.33.234.491-1.161.127-1.419a163.631,163.631,0,0,0-36.584-19.358,216.86,216.86,0,0,0-39.861-10.766,294.977,294.977,0,0,0-43.1-4.2,321.343,321.343,0,0,0-90.045,10.463c-1.867.493-3.719,1.047-5.57,1.606-.236.071-.174.84.019.791Z" fill="url(#linear-gradient)"/>
            <path id="Path_622" data-name="Path 622" d="M136.673,499.688c6.279-.673,12.524-1.7,18.8-2.447s12.573-1.367,18.876-1.856c12.595-.977,25.234-1.408,37.863-1.15a319.018,319.018,0,0,1,36.67,2.809,272.209,272.209,0,0,1,35.046,7.1,238.689,238.689,0,0,1,33.989,12.076q2.052.914,4.088,1.868c.408.191.5-1.225.125-1.4a234.875,234.875,0,0,0-33.435-12.622,267.018,267.018,0,0,0-35.08-7.738,306.074,306.074,0,0,0-36.337-3.28,376.454,376.454,0,0,0-38.048.783c-12.677.88-25.313,2.332-37.889,4.214-1.571.235-3.129.524-4.686.842-.229.047-.2.823.019.8Z" fill="url(#linear-gradient)"/>
            <path id="Path_623" data-name="Path 623" d="M147.692,505.445c5.12-.87,10.214-1.887,15.351-2.657s10.3-1.4,15.469-1.876a279.69,279.69,0,0,1,31.12-1.144,284.069,284.069,0,0,1,31.067,2.3,281.229,281.229,0,0,1,30.521,5.67,277.8,277.8,0,0,1,30.105,9.164q1.837.675,3.666,1.376c.4.152.457-1.112.115-1.243a280.113,280.113,0,0,0-122.595-17.569,254.1,254.1,0,0,0-31.017,4.291c-1.28.265-2.553.547-3.822.863-.242.061-.2.862.02.825Z" fill="url(#linear-gradient)"/>
            <path id="Path_624" data-name="Path 624" d="M157.311,510.52c8.794-2.283,17.877-2.648,26.889-3.143,8.847-.487,17.7-.824,26.563-.849,8.843-.025,17.688.239,26.506.953a220.011,220.011,0,0,1,26.106,3.619,170.853,170.853,0,0,1,25.4,7.178q1.57.583,3.128,1.2c.42.166.49-1.186.123-1.331a168.6,168.6,0,0,0-25.2-7.658,211.543,211.543,0,0,0-26.025-4.027c-8.841-.834-17.719-1.182-26.594-1.207-8.9-.025-17.806.293-26.7.79q-6.662.372-13.315.881a91.632,91.632,0,0,0-13.563,1.867c-1.128.262-2.242.563-3.346.919-.238.077-.179.859.019.808Z" fill="url(#linear-gradient)"/>
            <path id="Path_625" data-name="Path 625" d="M164.888,516.332c3.788-.349,7.557-.926,11.339-1.341s7.58-.761,11.379-1.037q11.4-.826,22.83-.822a319.5,319.5,0,0,1,45.437,3.246q6.321.912,12.6,2.08,3.111.579,6.211,1.221c2.138.443,4.265.988,6.423,1.311.317.047.326-1.079.04-1.167a103.869,103.869,0,0,0-11.032-2.415q-5.617-1.076-11.271-1.945-11.3-1.738-22.7-2.645a310.629,310.629,0,0,0-45.657-.236q-6.429.44-12.837,1.145c-4.267.47-8.571.92-12.783,1.789-.239.05-.212.838.019.816Z" fill="url(#linear-gradient)"/>
            <path id="Path_626" data-name="Path 626" d="M172.641,522.271c.057-.364-.465-.245-.514.036a.61.61,0,0,0,.215.459c.533.531,1.326.307,1.969.225,3.317-.424,6.63-.85,9.954-1.205q10.1-1.08,20.249-1.42a283.191,283.191,0,0,1,40.3,1.523q5.595.612,11.166,1.45,2.784.418,5.561.894c1.927.33,3.846.741,5.783,1,.349.046.347-1.191-.03-1.286-3.083-.776-6.275-1.2-9.41-1.686q-4.6-.714-9.212-1.274-9.353-1.136-18.763-1.636a275.784,275.784,0,0,0-37.512.583c-3.5.29-6.988.639-10.469,1.076q-2.613.328-5.219.706c-.888.129-1.781.244-2.665.4a8.023,8.023,0,0,0-1.012.2c-.152.049-.3.241-.484.2-.726-.168.108-.581.075-.255,0,.012.012.04.015.015Z" fill="url(#linear-gradient)"/>
            <path id="Path_627" data-name="Path 627" d="M176.88,529.15c2.537.024,5.059-.218,7.587-.41s5.06-.384,7.592-.538q7.6-.464,15.21-.655,15.219-.364,30.441.44c5.734.3,11.46.746,17.177,1.292.393.037.418-1.4-.034-1.443q-15.156-1.488-30.4-1.711c-10.144-.165-20.308.094-30.432.787q-4.3.294-8.588.684a66.767,66.767,0,0,0-8.566,1.158c-.114.026-.11.395.009.4Z" fill="url(#linear-gradient-40)"/>
          </g>
          <g id="Group_3302" data-name="Group 3302">
            <path id="Path_628" data-name="Path 628" d="M-50.427,519.642a238.547,238.547,0,0,1,43.7-37.6,244.752,244.752,0,0,1,51.206-25.568,268.321,268.321,0,0,1,55.732-13.612c18.968-2.55,38.348-3.4,57.384-1.148,18.989,2.251,37.913,7.859,53.939,19.027q2.975,2.071,5.786,4.382c.331.271.527-1.217.142-1.53-15.179-12.388-33.64-19.237-52.516-22.362-19.192-3.178-38.853-2.788-58.128-.645a270.285,270.285,0,0,0-56.108,12.331A248.391,248.391,0,0,0-1.061,477.083a221.633,221.633,0,0,0-44.712,36.349c-1.673,1.776-3.281,3.614-4.86,5.482-.153.18-.042,1,.206.728Z" fill="url(#linear-gradient)"/>
            <path id="Path_629" data-name="Path 629" d="M-36.544,514.349A297.476,297.476,0,0,1,4.01,485.268a289.58,289.58,0,0,1,44.746-21.226A302.849,302.849,0,0,1,97.624,450.17c17.309-3.341,35.023-4.95,52.606-3.553a138.462,138.462,0,0,1,25.92,4.489c7.9,2.182,16.117,4.888,22.844,9.882a32.237,32.237,0,0,1,4.7,4.263c.364.4.519-.9.261-1.181-5.54-6.111-13.059-9.475-20.588-12.035a131.805,131.805,0,0,0-25.092-5.807c-17.686-2.346-35.66-1.39-53.234,1.5a294.855,294.855,0,0,0-49.938,13A294.892,294.892,0,0,0,9.66,481.087,261.759,261.759,0,0,0-31.871,509.6c-1.619,1.363-3.191,2.782-4.749,4.221-.119.11-.052.637.076.53Z" fill="url(#linear-gradient)"/>
            <path id="Path_630" data-name="Path 630" d="M-10.659,502.831a304.862,304.862,0,0,1,36.546-20.808,289.212,289.212,0,0,1,39.437-15.19,319.75,319.75,0,0,1,40.656-9.484c13.488-2.245,27.17-3.865,40.848-3.487,13.43.372,26.983,2.784,39.167,8.911,1.485.746,2.943,1.549,4.377,2.4.381.225.512-1.171.132-1.4-11.731-6.9-25.026-10.111-38.379-11.017-13.671-.927-27.39.4-40.917,2.451a321.363,321.363,0,0,0-41.135,8.978A290.719,290.719,0,0,0,30.75,478.635,252.234,252.234,0,0,0-6.29,499.171c-1.5,1.014-2.975,2.076-4.442,3.145-.126.092-.07.608.073.515Z" fill="url(#linear-gradient)"/>
            <path id="Path_631" data-name="Path 631" d="M14.445,494.562c4.736-2.273,9.372-4.761,14.122-7.005q7.214-3.408,14.607-6.369a265.792,265.792,0,0,1,61.02-16.385,258.221,258.221,0,0,1,31.4-2.57c10.152-.2,20.666.275,30.184,4.338q1.749.747,3.428,1.651c.352.188.459-1.107.115-1.291-9.1-4.86-19.456-5.994-29.54-6.029a239.131,239.131,0,0,0-31.586,2.124,262.153,262.153,0,0,0-61.352,15.691,252.313,252.313,0,0,0-28.991,13.4c-1.177.641-2.323,1.336-3.463,2.047-.1.06-.069.456.055.4Z" fill="url(#linear-gradient)"/>
            <path id="Path_632" data-name="Path 632" d="M38.435,489.473c3.365-1.216,6.667-2.616,10.02-3.868q5.124-1.914,10.323-3.6,10.116-3.271,20.467-5.66a248.44,248.44,0,0,1,41.936-5.991,101.639,101.639,0,0,1,12.365-.174,38.142,38.142,0,0,1,6.032.852c1.983.456,3.864,1.229,5.823,1.756.274.074.246-.935.034-1.062a18.734,18.734,0,0,0-4.973-1.871,35.557,35.557,0,0,0-5.481-.946,77.355,77.355,0,0,0-11.01-.069q-10.7.495-21.341,1.932a243.816,243.816,0,0,0-41.852,9.5q-5.659,1.816-11.236,3.9a121.068,121.068,0,0,0-11.2,4.632c-.167.082-.126.736.091.657Z" fill="url(#linear-gradient)"/>
            <path id="Path_633" data-name="Path 633" d="M68.356,487.462c.829-.25,1.682-.413,2.517-.659.882-.26,1.759-.535,2.642-.791,1.692-.492,3.386-.975,5.09-1.42q5.172-1.35,10.424-2.329a152.661,152.661,0,0,1,20.95-2.434q2.994-.138,5.992-.156,1.438-.008,2.877.011a11.367,11.367,0,0,0,3.113-.092c.275-.076.309-.946.034-1.038a7.9,7.9,0,0,0-2.46-.233q-1.439-.018-2.877-.009-2.637.018-5.273.128-5.331.223-10.64.826a149.654,149.654,0,0,0-21.119,3.959c-1.9.5-3.8,1.027-5.675,1.61-.96.3-1.919.606-2.872.931s-1.84.751-2.77,1.106c-.148.057-.092.632.047.59Z" fill="url(#linear-gradient)"/>
          </g>
          <g id="Group_3304" data-name="Group 3304">
            <g id="Group_3303" data-name="Group 3303">
              <path id="Path_634" data-name="Path 634" d="M-205.521,504.175c6.741-10.741,16.079-19.221,25.829-26.876a314.13,314.13,0,0,1,31.544-21.674c21.973-13.279,45.195-24.134,68.677-34.124,24.485-10.416,49.368-20.875,75.582-25.372a188.745,188.745,0,0,1,75.987,2.6,172.859,172.859,0,0,1,35.334,12.423c9.7,4.737,19.216,11.016,25.525,20.262a40.865,40.865,0,0,1,3.928,7.257c.367.875.706-.831.51-1.3-4.322-10.2-12.407-17.759-21.462-23.344-10.071-6.21-21.312-10.462-32.492-13.9a189.539,189.539,0,0,0-76.629-7.181c-26.726,3-51.95,12.575-76.769,22.909-23.858,9.934-47.537,20.518-70.089,33.417a328.633,328.633,0,0,0-32.883,21.342c-9.869,7.331-19.753,15.192-27.512,25a72.948,72.948,0,0,0-5.319,7.684c-.143.237.028,1.206.239.869Z" fill="url(#linear-gradient)"/>
              <path id="Path_635" data-name="Path 635" d="M-205.3,512.247a315.6,315.6,0,0,1,55.255-46.242,393.654,393.654,0,0,1,63.006-33.511C-63.3,422.4-38.783,414.032-13.6,408.917c25.138-5.107,51.026-6.911,76.477-3.386,21.637,3,44.586,9.866,60.317,26.6a64.322,64.322,0,0,1,5.18,6.281c.311.428.494-.927.261-1.246-13.249-18.1-34.544-26.866-55.346-31.037-25.408-5.1-51.671-4.425-77.137-.16-25.574,4.284-50.513,12.177-74.64,21.925a409.89,409.89,0,0,0-64.455,32.592,309.248,309.248,0,0,0-56.468,45.061q-3.053,3.111-5.987,6.342c-.079.087-.022.49.1.36Z" fill="url(#linear-gradient)"/>
              <path id="Path_636" data-name="Path 636" d="M-209.6,528.626a364.009,364.009,0,0,1,52.451-47.82,350.6,350.6,0,0,1,60.185-35.785,340.083,340.083,0,0,1,66.177-22.856,323.51,323.51,0,0,1,68.744-8.512c25.2-.374,52.557,2.258,72.611,19.959a61.294,61.294,0,0,1,6.333,6.5c.378.45.558-.987.284-1.31-17.048-20.089-43.5-25.787-68.089-26.453a311.875,311.875,0,0,0-71.175,6.576A339.065,339.065,0,0,0-88.667,440.1a344,344,0,0,0-115.111,81.419c-2.025,2.183-4,4.419-5.941,6.681-.092.108-.022.583.122.424Z" fill="url(#linear-gradient)"/>
              <path id="Path_637" data-name="Path 637" d="M-215.026,546.558c16.31-16.835,33.225-32.947,51.434-47.525a393.57,393.57,0,0,1,57.286-38.422A313.906,313.906,0,0,1-40.15,433.524a266.1,266.1,0,0,1,70.407-9.992,201.942,201.942,0,0,1,34.525,2.554c10.6,1.813,21.18,4.989,30.322,11.035a55.3,55.3,0,0,1,6.363,4.922c.268.239.457-1.084.125-1.379-16.851-15-40.645-17.545-61.9-18.319a258.425,258.425,0,0,0-71.5,7.711A308.911,308.911,0,0,0-98.891,455.5a378.98,378.98,0,0,0-58.486,37.608,489.406,489.406,0,0,0-51.764,46.737c-2.027,2.1-4,4.251-5.974,6.4-.07.076-.02.424.089.311Z" fill="url(#linear-gradient)"/>
              <path id="Path_638" data-name="Path 638" d="M-214.579,560.02c16.29-15.936,33.091-31.3,50.73-45.594A464.5,464.5,0,0,1-108.4,475.467a335.831,335.831,0,0,1,62.321-29.074,266.311,266.311,0,0,1,66.382-13.917,202.532,202.532,0,0,1,32.924.006c10.695.957,21.454,3.2,31.128,8.221a59.114,59.114,0,0,1,6.623,4.027c.286.2.43-1.051.109-1.275C73.1,430.918,50,429.985,29.082,430.746a257.082,257.082,0,0,0-67,11.8,326.954,326.954,0,0,0-62.526,27.212,437.594,437.594,0,0,0-56.617,38.214,648.056,648.056,0,0,0-51.43,45.493q-3.093,3.023-6.158,6.075c-.112.111-.031.582.07.483Z" fill="url(#linear-gradient)"/>
              <path id="Path_639" data-name="Path 639" d="M-211.818,572.909c15.744-14.512,31.536-28.965,47.915-42.694a552.518,552.518,0,0,1,51.254-38.553A349.045,349.045,0,0,1-57.373,461.73,259.455,259.455,0,0,1,2.735,444.084a211.478,211.478,0,0,1,30.7-2.683c10.275-.131,20.853.178,30.794,3.158a51.482,51.482,0,0,1,7.534,2.919c.343.164.429-1.073.106-1.228-9.427-4.519-19.839-5.737-30.1-6.039a205,205,0,0,0-31.05,1.49,249.062,249.062,0,0,0-59.943,15.512,333.647,333.647,0,0,0-56.322,28.738,507.924,507.924,0,0,0-52.012,37.987c-16.668,13.725-32.84,28.184-48.547,43.1q-2.885,2.739-5.769,5.478c-.093.088-.031.478.059.4Z" fill="url(#linear-gradient)"/>
              <path id="Path_640" data-name="Path 640" d="M-207.887,585a526.638,526.638,0,0,1,41.9-39.917,514.559,514.559,0,0,1,45.4-34.536A492.237,492.237,0,0,1-71.365,481.2c17.546-9.1,35.733-17.01,54.654-22.4a195.656,195.656,0,0,1,28.694-5.975c9.749-1.251,19.806-1.991,29.552-.346a52.591,52.591,0,0,1,7.566,1.855c.43.14.474-1.239.118-1.355-9.586-3.121-19.7-3.175-29.625-2.35a183.477,183.477,0,0,0-28.9,4.835c-19.044,4.718-37.408,12.126-55.079,20.861a475.8,475.8,0,0,0-50.309,28.955,499.085,499.085,0,0,0-46.368,34.475,509.952,509.952,0,0,0-42.077,39.532c-1.646,1.73-3.26,3.493-4.879,5.249-.1.114-.026.627.132.46Z" fill="url(#linear-gradient)"/>
              <path id="Path_641" data-name="Path 641" d="M-201.892,592.745c6.138-6.171,12.206-12.4,18.557-18.337q9.408-8.8,19.286-17.018c13.179-10.991,26.911-21.239,41.015-30.889,14.071-9.629,28.524-18.641,43.227-27.172,15.1-8.762,30.516-17.067,46.715-23.4,16.014-6.261,32.869-10.523,50.026-10.821q3.237-.056,6.472.078c.376.015.377-1.351-.032-1.368-17.252-.707-34.349,2.8-50.633,8.581-16.36,5.811-31.924,13.817-47.077,22.437Q-96.7,507.56-118.188,521.894c-14.264,9.568-28.147,19.764-41.491,30.69a440.731,440.731,0,0,0-37.9,34.794c-1.521,1.575-3.015,3.171-4.475,4.809-.125.14-.041.764.164.558Z" fill="url(#linear-gradient)"/>
              <path id="Path_642" data-name="Path 642" d="M-194.555,599.7a248.363,248.363,0,0,1,29.92-31.142c10.765-9.5,22.1-18.252,33.648-26.68,11.909-8.7,23.935-17.243,36.263-25.278a341.485,341.485,0,0,1,38.58-22.066c13.41-6.434,27.78-12.439,42.75-12.551a54.2,54.2,0,0,1,5.538.246c.382.036.4-1.336-.032-1.377-14.965-1.4-29.555,3.8-43.1,9.923a315.189,315.189,0,0,0-39.225,21.567c-12.528,7.97-24.71,16.54-36.751,25.287-11.63,8.45-23.107,17.156-34.031,26.59a250.137,250.137,0,0,0-30.332,30.705c-1.148,1.4-2.271,2.83-3.379,4.268-.106.137-.01.707.149.508Z" fill="url(#linear-gradient)"/>
              <path id="Path_643" data-name="Path 643" d="M-190.544,607.5a377.841,377.841,0,0,1,26.158-28.776A392.587,392.587,0,0,1-133.81,551.6c10.066-8.056,20.483-15.635,31.157-22.783a376.743,376.743,0,0,1,33.424-20.4c11.658-6.158,24.176-11.166,37.33-11.994q2.391-.15,4.787-.112c.417.006.4-1.387-.033-1.393-13.291-.162-26.13,4.193-38.039,10.061-11.881,5.854-23.208,13.048-34.311,20.362q-16.342,10.764-31.8,22.914a389.805,389.805,0,0,0-29.453,25.712A333.572,333.572,0,0,0-187.6,603.1c-1.045,1.285-2.068,2.589-3.087,3.9-.1.134-.013.69.148.494Z" fill="url(#linear-gradient)"/>
              <path id="Path_644" data-name="Path 644" d="M-187.352,615.552c8.429-9.371,17.135-18.479,26.151-27.234q13.6-13.2,28.033-25.432c9.721-8.229,19.723-16.108,29.86-23.767A261.043,261.043,0,0,1-74.1,519.5a119.755,119.755,0,0,1,32.078-12.847q2.088-.471,4.194-.846c.449-.081.361-1.439-.032-1.369a113.054,113.054,0,0,0-32.4,11.607,229.832,229.832,0,0,0-29.716,19.228q-15.252,11.331-29.9,23.559Q-144.3,570.9-157.9,583.99q-13.705,13.218-26.52,27.394-1.575,1.748-3.135,3.51c-.155.176-.028.911.2.658Z" fill="url(#linear-gradient)"/>
              <path id="Path_645" data-name="Path 645" d="M-145.347,584.541c2.659-2.835,5.042-5.963,7.613-8.888q3.892-4.426,7.995-8.643a230.862,230.862,0,0,1,17.221-15.979,232.55,232.55,0,0,1,18.553-14.037,211.13,211.13,0,0,1,20.2-12.211c7.276-3.834,14.921-7.091,22.974-8.593q1.516-.282,3.046-.48c.448-.058.378-1.422-.032-1.368-8.1,1.08-15.844,4.007-23.184,7.668a194.081,194.081,0,0,0-20.642,12.123,225.093,225.093,0,0,0-18.885,14.011,233.384,233.384,0,0,0-17.326,15.877,219.36,219.36,0,0,0-15.8,17.743c-.64.807-1.238,1.637-1.815,2.495-.047.07-.022.4.084.282Z" fill="url(#linear-gradient)"/>
            </g>
            <path id="Path_646" data-name="Path 646" d="M-116.479,562.454c3.128-2.9,6.127-5.95,9.261-8.845,3.155-2.913,6.385-5.74,9.725-8.418A101.511,101.511,0,0,1-76.234,531.8c2.093-.952,4.226-1.808,6.4-2.553,2.3-.79,4.636-1.38,6.982-1.992.36-.094.306-1.178-.026-1.113a57.7,57.7,0,0,0-11.78,3.9A84.909,84.909,0,0,0-85.8,535.953a142.578,142.578,0,0,0-20.32,15.877c-3.577,3.27-7.144,6.6-10.457,10.167-.092.1-.013.562.1.457Z" fill="url(#linear-gradient)"/>
          </g>
        </g>
      </g>
    </g>
  </g>
</svg>
